# xmcd
#
# Track frame offsets: 
#        150
#        16813
#        34193
#        51400
#        67303
#        83905
#        99035
#        115345
#        129725
#        143983
#        161090
#        181285
#        202998
#        221003
#        238105
#        256353
#        275915
#        294858
#
# Disc length: 4224 seconds
#
# Revision: 0
# Processed by: cddbd v1.5.2PL0 Copyright (c) Steve Scherf et al.
# Submitted via: ExactAudioCopy v1.1
#
DISCID=13107e12
DTITLE=石原裕次郎 - 石原裕次郎 ゴールド・ディスク ザ・グレイト Disc 5 00CH-303-307
DYEAR=1900
DGENRE=JPop
TTITLE0=ロンリーナイト・ロンリーウェイ
TTITLE1=みんな誰かを愛してる
TTITLE2=よこはま物語
TTITLE3=夜明けの街
TTITLE4=時間よお前は…
TTITLE5=涙は俺がふく
TTITLE6=おれの小樽
TTITLE7=勇者たち
TTITLE8=思い出さがし
TTITLE9=霧の波止場町
TTITLE10=嘆きのメロディー
TTITLE11=黎明 (れいめい)
TTITLE12=さよならは昼下り
TTITLE13=愛・フォーエヴァー
TTITLE14=わが人生に悔いなし
TTITLE15=北の旅人
TTITLE16=想い出はアカシア
TTITLE17=俺の人生
EXTD=
EXTT0=
EXTT1=
EXTT2=
EXTT3=
EXTT4=
EXTT5=
EXTT6=
EXTT7=
EXTT8=
EXTT9=
EXTT10=
EXTT11=
EXTT12=
EXTT13=
EXTT14=
EXTT15=
EXTT16=
EXTT17=
PLAYORDER=
